<svg height="20" viewBox="0 0 64 64" width="20" xmlns="http://www.w3.org/2000/svg"><g id="Business-coin-cryptocurrency-digital-mining-4" data-name="Business-coin-cryptocurrency-digital-mining"><path d="m42 51a18.882 18.882 0 0 1 -13.84-6h-24.16a1 1 0 0 0 -1 1v10a1 1 0 0 0 1 1h44a1 1 0 0 0 1-1v-6.34a18.717 18.717 0 0 1 -7 1.34zm-33 2a2 2 0 1 1 2-2 2.006 2.006 0 0 1 -2 2zm7 0a2 2 0 1 1 2-2 2.006 2.006 0 0 1 -2 2zm7 0a2 2 0 1 1 2-2 2.006 2.006 0 0 1 -2 2z" fill="#78b9eb"/><path d="m48 7h-44a1 1 0 0 0 -1 1v10a1 1 0 0 0 1 1h24.16a18.96 18.96 0 0 1 20.84-4.66v-6.34a1 1 0 0 0 -1-1zm-39 8a2 2 0 1 1 2-2 2.006 2.006 0 0 1 -2 2zm7 0a2 2 0 1 1 2-2 2.006 2.006 0 0 1 -2 2zm7 0a2 2 0 1 1 2-2 2.006 2.006 0 0 1 -2 2z" fill="#78b9eb"/><path d="m23.98 26h-19.98a1 1 0 0 0 -1 1v10a1 1 0 0 0 1 1h19.98a18.857 18.857 0 0 1 0-12zm-14.98 8a2 2 0 1 1 2-2 2.006 2.006 0 0 1 -2 2zm7 0a2 2 0 1 1 2-2 2.006 2.006 0 0 1 -2 2z" fill="#78b9eb"/><circle cx="42" cy="32" fill="#78b9eb" r="15"/><g fill="#006df0"><path d="m9 16a3 3 0 1 0 -3-3 3 3 0 0 0 3 3zm0-4a1 1 0 1 1 -1 1 1 1 0 0 1 1-1z"/><path d="m16 16a3 3 0 1 0 -3-3 3 3 0 0 0 3 3zm0-4a1 1 0 1 1 -1 1 1 1 0 0 1 1-1z"/><path d="m23 16a3 3 0 1 0 -3-3 3 3 0 0 0 3 3zm0-4a1 1 0 1 1 -1 1 1 1 0 0 1 1-1z"/><path d="m9 35a3 3 0 1 0 -3-3 3 3 0 0 0 3 3zm0-4a1 1 0 1 1 -1 1 1 1 0 0 1 1-1z"/><path d="m16 35a3 3 0 1 0 -3-3 3 3 0 0 0 3 3zm0-4a1 1 0 1 1 -1 1 1 1 0 0 1 1-1z"/><path d="m9 48a3 3 0 1 0 3 3 3 3 0 0 0 -3-3zm0 4a1 1 0 1 1 1-1 1 1 0 0 1 -1 1z"/><path d="m16 48a3 3 0 1 0 3 3 3 3 0 0 0 -3-3zm0 4a1 1 0 1 1 1-1 1 1 0 0 1 -1 1z"/><path d="m23 48a3 3 0 1 0 3 3 3 3 0 0 0 -3-3zm0 4a1 1 0 1 1 1-1 1 1 0 0 1 -1 1z"/><path d="m42 16a16 16 0 1 0 16 16 16.021 16.021 0 0 0 -16-16zm0 30a14 14 0 1 1 14-14 14.015 14.015 0 0 1 -14 14z"/><path d="m50 13.68v-5.68a2.006 2.006 0 0 0 -2-2h-44a2.006 2.006 0 0 0 -2 2v10a2.006 2.006 0 0 0 2 2v5a2.006 2.006 0 0 0 -2 2v10a2.006 2.006 0 0 0 2 2v5a2.006 2.006 0 0 0 -2 2v10a2.006 2.006 0 0 0 2 2h44a2.006 2.006 0 0 0 2-2v-5.68a19.984 19.984 0 0 0 0-36.64zm-46-5.68h44v4.92a20.181 20.181 0 0 0 -6-.92 19.924 19.924 0 0 0 -14.26 6h-23.74zm2 17v-5h20.04a20.1 20.1 0 0 0 -2.75 5zm20.04 19h-20.04v-5h17.29a20.1 20.1 0 0 0 2.75 5zm-22.04-17h18.66a19.269 19.269 0 0 0 0 10h-18.66zm44 29h-44v-10h23.74a19.924 19.924 0 0 0 14.26 6 20.181 20.181 0 0 0 6-.92zm-6-6a18 18 0 1 1 18-18 18.014 18.014 0 0 1 -18 18z"/><path d="m47.97 32a4.985 4.985 0 0 0 -2.97-9v-2h-2v2h-3v-2h-2v2h-3v2h2v14h-2v2h3v2h2v-2h3v2h2v-2a4.985 4.985 0 0 0 2.97-9zm-8.97-7h6a3 3 0 0 1 0 6h-6zm6 14h-6v-6h6a3 3 0 0 1 0 6z"/></g></g></svg>